<svg width="17" height="16" viewBox="0 0 17 16" fill="none" xmlns="http://www.w3.org/2000/svg">
<g clip-path="url(#clip0_2189_16873)">
<path d="M4.69666 8.72741C4.69666 7.76298 5.07977 6.83806 5.76172 6.15611C6.44367 5.47416 7.3686 5.09104 8.33302 5.09104C9.29744 5.09104 10.2224 5.47416 10.9043 6.15611C11.5863 6.83806 11.9694 7.76298 11.9694 8.72741V12.3638C11.9694 13.7354 11.9694 14.4205 11.5432 14.8467C11.117 15.2729 10.4319 15.2729 9.06029 15.2729H7.60575C6.23411 15.2729 5.54902 15.2729 5.12284 14.8467C4.69666 14.4205 4.69666 13.7354 4.69666 12.3638V8.72741Z" stroke="white" stroke-width="1.2" stroke-linecap="round" stroke-linejoin="round"/>
<path d="M6.87847 5.09103V4.36376C6.87847 3.67794 6.87847 3.33539 7.09156 3.1223C7.30466 2.90921 7.6472 2.90921 8.33302 2.90921M8.33302 2.90921C9.01884 2.90921 9.36138 2.90921 9.57447 3.1223C9.78756 3.33539 9.78756 3.67794 9.78756 4.36376V5.09103M8.33302 2.90921V0.727394M8.33302 0.727394H6.87847M8.33302 0.727394H10.3294C10.88 0.727534 11.4103 0.935891 11.8137 1.31067L11.9694 1.45467M4.69666 8.72739H11.9694" stroke="white" stroke-width="1.2" stroke-linecap="round" stroke-linejoin="round"/>
<rect x="4.33337" y="9.0001" width="8" height="6" rx="1" fill="white"/>
</g>
<defs>
<clipPath id="clip0_2189_16873">
<rect width="16" height="16" fill="white" transform="translate(0.333252 0.00012207)"/>
</clipPath>
</defs>
</svg>
