<svg width="17" height="7" viewBox="0 0 17 7" fill="none" xmlns="http://www.w3.org/2000/svg">
<path d="M13.2117 1.08158C14.4502 1.64012 15.5179 2.47867 16.0939 3.6663C16.1538 3.78996 16.1775 3.92808 16.1622 4.06466C16.1469 4.20124 16.0932 4.33069 16.0074 4.43801C15.9215 4.54533 15.807 4.62612 15.6771 4.67103C15.5473 4.71594 15.4073 4.72313 15.2735 4.69176C10.9411 3.67649 6.55858 5.42194 4.24804 6.37467C2.79785 6.97249 1.38985 6.48449 0.661855 5.50121C0.283257 5.00009 0.112147 4.37242 0.184036 3.74849C0.431309 1.70849 2.99567 0.835759 4.68731 0.451759C7.43713 -0.171514 10.6131 -0.092241 13.2117 1.08085V1.08158Z" fill="white"/>
</svg>
