<svg width="17" height="16" viewBox="0 0 17 16" fill="none" xmlns="http://www.w3.org/2000/svg">
<g clip-path="url(#clip0_2189_16701)">
<path d="M15.2333 4.80007C14.7933 4.80007 14.4333 4.44007 14.4333 4.00007C14.4333 3.56007 14.7933 3.20007 15.2333 3.20007V2.40007H2.43325V3.20007C2.87325 3.20007 3.23325 3.56007 3.23325 4.00007C3.23325 4.44007 2.87325 4.80007 2.43325 4.80007H0.833252V10.4001H2.43325C2.87325 10.4001 3.23325 10.7601 3.23325 11.2001C3.23325 11.6401 2.87325 12.0001 2.43325 12.0001V12.8001H15.2333V12.0001C14.7933 12.0001 14.4333 11.6401 14.4333 11.2001C14.4333 10.7601 14.7933 10.4001 15.2333 10.4001H16.8333V4.80007H15.2333ZM15.2333 8.00007H14.4333V8.80007H12.8333V8.00007H9.96125C9.79325 8.46407 9.35325 8.80007 8.83325 8.80007C8.31325 8.80007 7.87325 8.46407 7.70525 8.00007H4.83325V8.80007H3.23325V8.00007H2.43325V7.20007H3.23325V6.40007H4.83325V7.20007H7.70525C7.87325 6.73607 8.31325 6.40007 8.83325 6.40007C9.35325 6.40007 9.79325 6.73607 9.96125 7.20007H12.8333V6.40007H14.4333V7.20007H15.2333V8.00007Z" fill="white"/>
</g>
<defs>
<clipPath id="clip0_2189_16701">
<rect width="16" height="16" fill="white" transform="translate(0.833252 0.00012207)"/>
</clipPath>
</defs>
</svg>
