<svg width="17" height="16" viewBox="0 0 17 16" fill="none" xmlns="http://www.w3.org/2000/svg">
<g clip-path="url(#clip0_2189_16552)">
<path d="M15.0452 7.27289C13.5907 7.27289 12.8634 5.09107 10.6816 5.09107C8.49976 5.09107 8.49976 6.54562 8.49976 6.54562C8.49976 6.54562 8.49976 5.09107 6.31794 5.09107C4.13612 5.09107 3.40885 7.27289 1.9543 7.27289C1.22703 7.27289 0.499756 6.54562 0.499756 6.54562C0.499756 6.54562 1.22703 10.182 4.13612 10.182C7.77248 10.182 8.49976 8.00016 8.49976 8.00016C8.49976 8.00016 9.22703 10.182 12.8634 10.182C15.7725 10.182 16.4998 6.54562 16.4998 6.54562C16.4998 6.54562 15.7725 7.27289 15.0452 7.27289Z" fill="white"/>
</g>
<defs>
<clipPath id="clip0_2189_16552">
<rect width="16" height="16" fill="white" transform="translate(0.499878 0.00012207)"/>
</clipPath>
</defs>
</svg>
