<svg width="17" height="16" viewBox="0 0 17 16" fill="none" xmlns="http://www.w3.org/2000/svg">
<g clip-path="url(#clip0_2189_16659)">
<path fill-rule="evenodd" clip-rule="evenodd" d="M1.08551 2.43566C0.700844 3.10001 0.575381 3.88312 0.733254 4.63439C0.891126 5.38565 1.32119 6.05203 1.94072 6.50535C2.56026 6.95867 3.32553 7.16692 4.08935 7.09006C4.85317 7.01321 5.5616 6.65666 6.0784 6.08899L6.86329 6.54233C6.88551 6.62411 6.99396 6.64544 7.04996 6.58055C7.18388 6.42351 7.33203 6.28011 7.4944 6.15033C7.74862 5.94588 7.76107 5.52011 7.4784 5.35744L6.74507 4.93344C6.9744 4.20315 6.92655 3.41396 6.61065 2.71674C6.29475 2.01952 5.73297 1.46317 5.03271 1.15407C4.33244 0.844972 3.54282 0.804795 2.8148 1.04122C2.08678 1.27765 1.47144 1.7741 1.0864 2.43566M2.89085 5.53077C2.68703 5.41489 2.50815 5.25984 2.3645 5.07455C2.22086 4.88925 2.11528 4.67738 2.05385 4.45111C1.99242 4.22485 1.97635 3.98867 2.00657 3.75617C2.03679 3.52368 2.1127 3.29945 2.22993 3.09641C2.34716 2.89337 2.5034 2.71552 2.68964 2.57311C2.87588 2.43069 3.08845 2.32652 3.31512 2.2666C3.54178 2.20667 3.77806 2.19217 4.01036 2.22393C4.24265 2.25569 4.46636 2.33309 4.66862 2.45166C5.07361 2.68908 5.36825 3.07706 5.48825 3.53092C5.60824 3.98478 5.54384 4.46767 5.30911 4.87423C5.07438 5.28078 4.68837 5.57799 4.23532 5.70099C3.78226 5.82399 3.29895 5.7628 2.89085 5.53077ZM8.62951 6.49966C8.28643 6.64429 7.98091 6.86538 7.73628 7.14606C7.49164 7.42674 7.31436 7.75959 7.21796 8.11922L6.86418 9.44011L6.0784 9.89344C5.56065 9.32902 4.85294 8.97536 4.09072 8.90014C3.3285 8.82492 2.56532 9.03344 1.94723 9.48577C1.32915 9.93811 0.899588 10.6025 0.74076 11.3518C0.581933 12.101 0.704998 12.8826 1.0864 13.5468C1.46979 14.2114 2.08525 14.7109 2.81454 14.9493C3.54382 15.1877 4.33548 15.1482 5.03742 14.8384C5.73936 14.5286 6.30207 13.9704 6.61743 13.2709C6.9328 12.5715 6.97857 11.7801 6.74596 11.049L16.2393 5.56811C16.3532 5.502 16.445 5.40363 16.503 5.28543C16.5611 5.16722 16.5828 5.03447 16.5655 4.90392C16.5482 4.77336 16.4926 4.65086 16.4058 4.55187C16.3189 4.45287 16.2047 4.38181 16.0775 4.34766L15.4526 4.17966C14.9277 4.03924 14.371 4.07771 13.8704 4.28899L8.62951 6.49966ZM2.24018 12.8801C2.12161 12.6778 2.04421 12.4541 2.01245 12.2218C1.98069 11.9895 1.99519 11.7533 2.05511 11.5266C2.11504 11.2999 2.21921 11.0874 2.36163 10.9011C2.50404 10.7149 2.68189 10.5586 2.88493 10.4414C3.08797 10.3242 3.3122 10.2483 3.54469 10.2181C3.77719 10.1878 4.01337 10.2039 4.23963 10.2653C4.4659 10.3268 4.67777 10.4323 4.86307 10.576C5.04836 10.7196 5.20341 10.8985 5.31929 11.1023C5.55132 11.5104 5.61251 11.9937 5.48951 12.4468C5.36651 12.8999 5.0693 13.2859 4.66275 13.5206C4.25619 13.7553 3.77329 13.8197 3.31944 13.6997C2.86558 13.5797 2.4776 13.2851 2.24018 12.8801Z" fill="white"/>
<path d="M10.9086 9.6713C10.837 9.71265 10.7782 9.77321 10.7391 9.84613C10.7 9.91906 10.682 10.0015 10.6871 10.0841C10.6923 10.1667 10.7205 10.2462 10.7684 10.3137C10.8163 10.3811 10.8821 10.4339 10.9584 10.466L13.8686 11.6935C14.3692 11.9048 14.926 11.9433 15.4509 11.8029L16.0766 11.6349C16.2037 11.6005 16.3178 11.5292 16.4044 11.4301C16.4911 11.331 16.5464 11.2085 16.5636 11.078C16.5807 10.9475 16.5588 10.8148 16.5006 10.6967C16.4424 10.5786 16.3506 10.4804 16.2366 10.4144L13.1522 8.63308C13.0846 8.59407 13.008 8.57353 12.93 8.57353C12.852 8.57353 12.7753 8.59407 12.7078 8.63308L10.9086 9.6713Z" fill="white"/>
</g>
<defs>
<clipPath id="clip0_2189_16659">
<rect width="16" height="16" fill="white" transform="translate(0.666748 0.00012207)"/>
</clipPath>
</defs>
</svg>
