<svg width="16" height="16" viewBox="0 0 16 16" fill="none" xmlns="http://www.w3.org/2000/svg">
<g clip-path="url(#clip0_2189_16845)">
<path d="M14.7691 1.84628V9.84628C14.7692 9.93064 14.7521 10.0141 14.7186 10.0916C14.6852 10.169 14.6362 10.2388 14.5746 10.2965C14.5131 10.3542 14.4404 10.3986 14.3609 10.4271C14.2815 10.4555 14.1971 10.4672 14.1129 10.4617C13.9547 10.4481 13.8074 10.3751 13.7008 10.2573C13.5942 10.1396 13.5361 9.98586 13.5383 9.82705V1.84628C13.5385 1.76178 13.5213 1.67814 13.4877 1.60058C13.4542 1.52302 13.4051 1.4532 13.3434 1.39546C13.2816 1.33773 13.2087 1.29332 13.1291 1.26501C13.0495 1.2367 12.9649 1.22508 12.8806 1.23089C12.7224 1.24523 12.5754 1.31882 12.4691 1.43694C12.3628 1.55505 12.3051 1.70895 12.3075 1.86781V12.0001C12.3075 12.0817 12.2751 12.16 12.2174 12.2177C12.1597 12.2754 12.0814 12.3078 11.9998 12.3078H1.53828C1.45668 12.3078 1.37842 12.2754 1.32071 12.2177C1.26301 12.16 1.23059 12.0817 1.23059 12.0001V1.84628C1.23059 1.35665 1.4251 0.887069 1.77132 0.540848C2.11754 0.194627 2.58711 0.00012207 3.07674 0.00012207H12.9229C13.4125 0.00012207 13.8821 0.194627 14.2283 0.540848C14.5745 0.887069 14.7691 1.35665 14.7691 1.84628ZM11.9998 13.5386H1.53828C1.45668 13.5386 1.37842 13.571 1.32071 13.6287C1.26301 13.6864 1.23059 13.7647 1.23059 13.8463V14.7694C1.23059 15.0958 1.36026 15.4088 1.59107 15.6396C1.82189 15.8705 2.13494 16.0001 2.46136 16.0001H11.0767C11.4032 16.0001 11.7162 15.8705 11.947 15.6396C12.1778 15.4088 12.3075 15.0958 12.3075 14.7694V13.8463C12.3075 13.7647 12.2751 13.6864 12.2174 13.6287C12.1597 13.571 12.0814 13.5386 11.9998 13.5386Z" fill="white"/>
</g>
<defs>
<clipPath id="clip0_2189_16845">
<rect width="16" height="16" fill="white"/>
</clipPath>
</defs>
</svg>
