<svg width="21" height="21" viewBox="0 0 21 21" fill="none" xmlns="http://www.w3.org/2000/svg">
<path d="M5.5 17.1667C5.5 15.8406 6.02678 14.5688 6.96447 13.6311C7.90215 12.6934 9.17392 12.1667 10.5 12.1667C11.8261 12.1667 13.0979 12.6934 14.0355 13.6311C14.9732 14.5688 15.5 15.8406 15.5 17.1667" stroke="white" stroke-width="1.2" stroke-linecap="round" stroke-linejoin="round"/>
<path d="M10.5002 12.1667C8.65921 12.1667 7.16683 10.6743 7.16683 8.83333C7.16683 6.99238 8.65921 5.5 10.5002 5.5C12.3411 5.5 13.8335 6.99238 13.8335 8.83333C13.8335 10.6743 12.3411 12.1667 10.5002 12.1667Z" stroke="white" stroke-width="1.2" stroke-linecap="round" stroke-linejoin="round"/>
<path d="M10.5002 18.8333C5.89779 18.8333 2.16683 15.1024 2.16683 10.5C2.16683 5.89762 5.89779 2.16666 10.5002 2.16666C15.1025 2.16666 18.8335 5.89762 18.8335 10.5C18.8335 15.1024 15.1025 18.8333 10.5002 18.8333Z" stroke="white" stroke-width="1.2" stroke-linecap="round" stroke-linejoin="round"/>
</svg>
